<svg xmlns="http://www.w3.org/2000/svg" viewBox="0 0 120 120">
  <defs>
    <linearGradient id="gg-grad" x1="0" y1="0" x2="1" y2="1">
      <stop offset="0" stop-color="#0ea5e9"/>
      <stop offset="0.5" stop-color="#2563eb"/>
      <stop offset="1" stop-color="#0f172a"/>
    </linearGradient>
  </defs>
  <rect x="8" y="8" width="104" height="104" rx="26" fill="url(#gg-grad)"/>
  <g fill="none" stroke="#dff3ff" stroke-width="3" stroke-linecap="round" stroke-linejoin="round">
    <path d="M36 32h12a6 6 0 0 0 6 6h12a6 6 0 0 0 6-6h12a6 6 0 0 1 6 6v46a6 6 0 0 1-6 6H36a6 6 0 0 1-6-6V38a6 6 0 0 1 6-6z"/>
    <rect x="50" y="24" width="20" height="10" rx="5"/>
    <line x1="44" y1="52" x2="76" y2="52"/>
    <line x1="44" y1="62" x2="76" y2="62"/>
    <line x1="44" y1="72" x2="64" y2="72"/>
    <circle cx="82" cy="80" r="10"/>
    <circle cx="82" cy="80" r="4"/>
    <line x1="82" y1="66" x2="82" y2="72"/>
    <line x1="82" y1="88" x2="82" y2="94"/>
    <line x1="68" y1="80" x2="74" y2="80"/>
    <line x1="90" y1="80" x2="96" y2="80"/>
    <line x1="72" y1="70" x2="76" y2="74"/>
    <line x1="88" y1="86" x2="92" y2="90"/>
    <line x1="88" y1="74" x2="92" y2="70"/>
    <line x1="72" y1="90" x2="76" y2="86"/>
  </g>
</svg>
